<?xml version="1.0" standalone="no"?>
<!DOCTYPE svg PUBLIC "-//W3C//DTD SVG 20010904//EN"
 "http://www.w3.org/TR/2001/REC-SVG-20010904/DTD/svg10.dtd">
<svg version="1.0" xmlns="http://www.w3.org/2000/svg"
 width="512.000000pt" height="105.000000pt" viewBox="0 0 512.000000 105.000000"
 preserveAspectRatio="xMidYMid meet">

<g transform="translate(0.000000,105.000000) scale(0.100000,-0.100000)"
fill="#000000" stroke="none">
<path d="M128 1036 c-62 -17 -92 -38 -112 -79 -14 -32 -16 -84 -14 -494 l3
-458 100 0 100 0 3 413 c1 252 6 412 12 412 12 0 17 -21 95 -395 36 -176 71
-332 77 -348 47 -123 273 -107 308 23 5 19 41 185 80 369 39 184 73 338 76
342 20 33 24 -28 26 -403 l3 -413 100 0 100 0 3 458 c2 506 2 509 -60 547 -48
29 -128 43 -204 35 -85 -10 -123 -35 -147 -100 -10 -27 -40 -190 -68 -363 -47
-301 -59 -356 -72 -335 -4 6 -29 147 -57 314 -59 354 -72 408 -109 443 -44 42
-152 56 -243 32z"/>
<path d="M1352 1038 c-54 -12 -113 -68 -130 -124 -8 -30 -12 -150 -12 -421 l0
-380 29 -40 c52 -72 61 -74 393 -71 l293 3 3 92 3 93 -253 2 -253 3 -3 117 -3
118 236 0 235 0 0 100 0 100 -235 0 -236 0 3 113 3 112 253 3 253 2 -3 93 -3
92 -265 2 c-146 0 -284 -3 -308 -9z"/>
<path d="M2183 1040 c-51 -11 -85 -32 -110 -68 -17 -25 -18 -62 -21 -500 l-3
-473 103 3 103 3 5 425 c4 345 7 420 17 400 7 -14 55 -185 108 -380 52 -195
104 -366 114 -380 39 -54 77 -70 165 -70 106 0 160 25 193 89 l23 45 -2 455
-3 456 -100 0 -100 0 -3 -418 c-2 -312 -5 -418 -14 -415 -6 2 -56 168 -110
368 -55 201 -107 378 -116 395 -10 16 -31 37 -47 47 -36 20 -144 30 -202 18z"/>
<path d="M3347 1040 c-51 -9 -72 -21 -89 -53 -18 -34 -307 -971 -302 -979 3
-4 50 -8 105 -8 94 0 100 1 109 23 5 12 48 148 96 302 153 501 165 538 175
528 4 -4 66 -197 137 -428 l129 -420 106 -3 c80 -2 107 0 107 10 0 16 -290
957 -302 980 -5 10 -21 24 -37 33 -36 18 -170 27 -234 15z"/>
</g>
</svg>
