<?xml version="1.0" encoding="UTF-8"?>
<!DOCTYPE svg PUBLIC "-//W3C//DTD SVG 1.1//EN" "http://www.w3.org/Graphics/SVG/1.1/DTD/svg11.dtd">
<svg xmlns="http://www.w3.org/2000/svg" version="1.1" width="225px" height="225px" style="shape-rendering:geometricPrecision; text-rendering:geometricPrecision; image-rendering:optimizeQuality; fill-rule:evenodd; clip-rule:evenodd" xmlns:xlink="http://www.w3.org/1999/xlink">
<g><path style="opacity:1" fill="#000000" d="M -0.5,-0.5 C 74.5,-0.5 149.5,-0.5 224.5,-0.5C 224.5,74.5 224.5,149.5 224.5,224.5C 149.5,224.5 74.5,224.5 -0.5,224.5C -0.5,149.5 -0.5,74.5 -0.5,-0.5 Z"/></g>
<g><path style="opacity:1" fill="#f4f4f4" d="M 29.5,93.5 C 33.1916,92.9712 36.3583,93.9712 39,96.5C 40.9215,104.774 42.5881,113.107 44,121.5C 45.1875,113.483 46.5208,105.483 48,97.5C 52.2552,92.5626 56.9219,92.2292 62,96.5C 62.4999,107.828 62.6665,119.162 62.5,130.5C 60.1667,130.5 57.8333,130.5 55.5,130.5C 55.6665,120.828 55.4998,111.161 55,101.5C 52.9992,110.172 50.9992,118.838 49,127.5C 45.5354,131.386 42.2021,131.386 39,127.5C 36.5723,118.935 34.5723,110.268 33,101.5C 32.5002,111.161 32.3335,120.828 32.5,130.5C 30.1667,130.5 27.8333,130.5 25.5,130.5C 25.3335,119.162 25.5001,107.828 26,96.5C 27.1451,95.3636 28.3117,94.3636 29.5,93.5 Z"/></g>
<g><path style="opacity:1" fill="#efefef" d="M 71.5,93.5 C 78.1667,93.5 84.8333,93.5 91.5,93.5C 91.5,95.8333 91.5,98.1667 91.5,100.5C 85.8333,100.5 80.1667,100.5 74.5,100.5C 74.5,103.167 74.5,105.833 74.5,108.5C 79.8333,108.5 85.1667,108.5 90.5,108.5C 90.5,110.833 90.5,113.167 90.5,115.5C 85.1667,115.5 79.8333,115.5 74.5,115.5C 74.5,118.167 74.5,120.833 74.5,123.5C 80.1667,123.5 85.8333,123.5 91.5,123.5C 91.5,125.833 91.5,128.167 91.5,130.5C 84.4921,130.666 77.4921,130.5 70.5,130C 69.3333,128.833 68.1667,127.667 67,126.5C 66.3333,117.167 66.3333,107.833 67,98.5C 68.025,96.313 69.525,94.6464 71.5,93.5 Z"/></g>
<g><path style="opacity:1" fill="#f7f7f7" d="M 104.5,102.5 C 104.631,101.624 104.298,100.957 103.5,100.5C 102.502,110.144 102.168,119.81 102.5,129.5C 100.5,129.5 98.5,129.5 96.5,129.5C 96.5,118.833 96.5,108.167 96.5,97.5C 99.9955,93.1121 104.162,92.4454 109,95.5C 111.82,104.443 114.486,113.443 117,122.5C 117.5,112.839 117.666,103.172 117.5,93.5C 119.833,93.5 122.167,93.5 124.5,93.5C 124.667,104.505 124.5,115.505 124,126.5C 121.487,130.212 117.987,131.378 113.5,130C 112.667,129.167 111.833,128.333 111,127.5C 108.673,119.191 106.506,110.857 104.5,102.5 Z"/></g>
<g><path style="opacity:1" fill="#f2f2f2" d="M 134.5,129.5 C 131.941,129.802 129.607,129.468 127.5,128.5C 130.475,117.097 134.142,105.931 138.5,95C 142.167,93 145.833,93 149.5,95C 154.071,106.547 157.738,118.38 160.5,130.5C 157.881,130.768 155.381,130.435 153,129.5C 150.153,119.775 147.153,110.109 144,100.5C 140.673,110.154 137.506,119.821 134.5,129.5 Z"/></g>
<g><path style="opacity:1" fill="#36c32f" d="M 160.5,93.5 C 170.604,92.8179 173.27,96.9846 168.5,106C 165.854,106.497 163.187,106.664 160.5,106.5C 160.5,102.167 160.5,97.8333 160.5,93.5 Z"/></g>
<g><path style="opacity:1" fill="#000100" d="M 163.5,96.5 C 164.833,96.5 166.167,96.5 167.5,96.5C 167.5,98.8333 167.5,101.167 167.5,103.5C 166.167,103.5 164.833,103.5 163.5,103.5C 163.5,101.167 163.5,98.8333 163.5,96.5 Z"/></g>
<g><path style="opacity:1" fill="#3ad833" d="M 179.5,100.5 C 177.5,100.5 175.5,100.5 173.5,100.5C 173.5,101.833 173.5,103.167 173.5,104.5C 175.527,104.338 177.527,104.505 179.5,105C 177.19,105.497 174.857,105.663 172.5,105.5C 171.357,102.024 171.19,98.3575 172,94.5C 174.381,93.565 176.881,93.2317 179.5,93.5C 179.5,94.5 179.5,95.5 179.5,96.5C 177.712,96.2148 176.045,96.5481 174.5,97.5C 176.655,98.0014 178.322,99.0014 179.5,100.5 Z"/></g>
<g><path style="opacity:1" fill="#37c830" d="M 200.5,105.5 C 197.612,106.01 195.279,105.344 193.5,103.5C 200.569,103.257 200.903,102.423 194.5,101C 192.845,99.5557 192.178,97.7224 192.5,95.5C 195.162,93.7319 198.162,93.0653 201.5,93.5C 201.5,94.5 201.5,95.5 201.5,96.5C 199.396,96.2011 197.396,96.5344 195.5,97.5C 200.395,97.5542 202.562,99.8875 202,104.5C 201.617,105.056 201.117,105.389 200.5,105.5 Z"/></g>
<g><path style="opacity:1" fill="#b0b0b0" d="M 96.5,97.5 C 96.5,108.167 96.5,118.833 96.5,129.5C 98.5,129.5 100.5,129.5 102.5,129.5C 102.168,119.81 102.502,110.144 103.5,100.5C 104.298,100.957 104.631,101.624 104.5,102.5C 103.506,111.652 103.173,120.985 103.5,130.5C 100.833,130.5 98.1667,130.5 95.5,130.5C 95.1721,119.321 95.5054,108.321 96.5,97.5 Z"/></g>
<g><path style="opacity:1" fill="#36c02f" d="M 192.5,95.5 C 190.792,98.9503 189.459,102.617 188.5,106.5C 187.022,106.762 185.689,106.429 184.5,105.5C 183.015,101.895 181.681,98.2285 180.5,94.5C 181.5,93.1667 182.5,93.1667 183.5,94.5C 185.574,103.72 187.407,103.72 189,94.5C 190.756,93.015 191.923,93.3484 192.5,95.5 Z"/></g>
<g><path style="opacity:1" fill="#257a21" d="M 179.5,100.5 C 172.779,102.314 173.113,103.314 180.5,103.5C 180.5,104.5 180.5,105.5 180.5,106.5C 177.615,106.806 174.948,106.473 172.5,105.5C 174.857,105.663 177.19,105.497 179.5,105C 177.527,104.505 175.527,104.338 173.5,104.5C 173.5,103.167 173.5,101.833 173.5,100.5C 175.5,100.5 177.5,100.5 179.5,100.5 Z"/></g>
<g><path style="opacity:1" fill="#267624" d="M 193.5,103.5 C 195.279,105.344 197.612,106.01 200.5,105.5C 198.052,106.473 195.385,106.806 192.5,106.5C 192.263,105.209 192.596,104.209 193.5,103.5 Z"/></g>
<g><path style="opacity:1" fill="#7c7c7c" d="M 127.5,128.5 C 129.607,129.468 131.941,129.802 134.5,129.5C 131.976,130.8 129.309,130.8 126.5,129.5C 126.624,128.893 126.957,128.56 127.5,128.5 Z"/></g>
</svg>
